<!DOCTYPE svg PUBLIC "-//W3C//DTD SVG 1.1//EN" "http://www.w3.org/Graphics/SVG/1.1/DTD/svg11.dtd">

<!-- Uploaded to: SVG Repo, www.svgrepo.com, Transformed by: SVG Repo Mixer Tools -->
<svg width="px" height="55px" viewBox="-450.56 -450.56 1925.12 1925.12" class="icon" version="1.1" xmlns="http://www.w3.org/2000/svg" fill="#4bc832" stroke="#4bc832" stroke-width="60.416" transform="matrix(1, 0, 0, 1, 0, 0)">

<g id="SVGRepo_bgCarrier" stroke-width="0"/>

<g id="SVGRepo_tracerCarrier" stroke-linecap="round" stroke-linejoin="round" stroke="#CCCCCC" stroke-width="4.096"/>

<g id="SVGRepo_iconCarrier">

<path d="M379.5 624.5L73 507.8c-12.4-4.7-13.1-21.9-1.1-27.6L937.7 65.8c12.1-5.8 25.1 5.8 20.7 18.4L669 918.1c-3.8 10.9-18 13.7-25.6 5l-258-294.5c-1.6-1.8-3.6-3.3-5.9-4.1z" fill="#f8fcf9"/>

<path d="M316 600.3l493.2-401.4c3.6-3 8.3 2.2 5 5.5l-422.4 418c-3.5 3.5-3.7 9.1-0.5 12.9l83.5 95.4-135.1 92c-10.1 6.9-23.7-0.3-23.7-12.5V600.3z" fill="#ffffff"/>

</g>

</svg>